<svg xmlns="http://www.w3.org/2000/svg" width="18" height="18" fill="none" viewBox="0 0 18 18"><path fill="#fff" fill-rule="evenodd" d="M3.651 1.802c-.16 0-.313.018-.459.052a3.91 3.91 0 0 0-.764-1.14C1.918.202 1.113 0 0 0v1.8c.68 0 1.072.098 1.16.186.338.34.634 1.032.634 1.614l.009.127L2.68 9.9c-1.47.077-2.61 1.223-2.68 2.655L0 13.5c.087 1.48 1.222 2.618 2.64 2.698h.203A2.692 2.692 0 0 0 5.381 18a2.692 2.692 0 0 0 2.537-1.8h2.1a2.692 2.692 0 0 0 2.537 1.8 2.695 2.695 0 0 0 2.69-2.7c0-1.491-1.204-2.7-2.69-2.7a2.692 2.692 0 0 0-2.537 1.8h-2.1a2.692 2.692 0 0 0-2.537-1.8 2.692 2.692 0 0 0-2.538 1.8H2.69c-.457-.027-.867-.439-.898-.954l.002-.846c.024-.467.431-.876.94-.901h1.771l.013.001h9.039l.132-.042a2.357 2.357 0 0 0 1.482-1.396l.094-.187.307-.61c.318-.632.636-1.265.945-1.884a141.339 141.339 0 0 0 1.34-2.713C18.4 3.654 17.301 2.72 16.18 2.7L3.65 1.802ZM13.245 9.9h-8.66a.153.153 0 0 1-.11-.126l-.879-6.173 12.45.894c-.217.446-.613 1.243-1.132 2.278l-.013.026-.93 1.855-.307.61-.116.23-.043.102a.562.562 0 0 1-.26.304Zm-.69 6.3a.898.898 0 0 0 .897-.9c0-.497-.402-.9-.897-.9a.898.898 0 0 0-.897.9c0 .497.402.9.897.9Zm-6.277-.9c0 .497-.402.9-.897.9a.898.898 0 0 1-.897-.9c0-.497.401-.9.897-.9.495 0 .896.403.896.9Z" clip-rule="evenodd" opacity=".6"/></svg>