<svg xmlns="http://www.w3.org/2000/svg" width="16" height="16" fill="none"><path fill="#293449" fill-rule="evenodd" d="M7.09 5.07c.414-.558.562-1.147.093-1.667C6.132 1.931 5.424 1.021 4.98.583 4.137-.251 2.75-.138 2.018.582c-.392.387-.525.52-.928.929-2.245 2.245-.876 6.993 2.763 10.635 3.638 3.642 8.385 5.011 10.634 2.76.372-.358.687-.673.935-.935.716-.757.825-2.083-.005-2.945-.425-.442-1.293-1.115-2.827-2.213-.47-.42-1.027-.329-1.537.006-.246.162-.425.325-.762.662l-.613.614c-.081.08-1.177-.468-2.242-1.534C6.372 7.495 5.823 6.4 5.903 6.32l.614-.614c.107-.107.158-.16.224-.228.137-.144.25-.274.348-.407Zm3.719 6.156.613-.613c.185-.186.306-.3.404-.38 1.343.966 2.122 1.572 2.44 1.903.19.198.16.56-.005.735-.23.243-.528.541-.894.894-1.455 1.455-5.286.35-8.383-2.75-3.098-3.1-4.203-6.933-2.76-8.377.402-.408.53-.535.916-.916.145-.143.54-.175.717 0 .341.337.975 1.148 1.907 2.447a3.38 3.38 0 0 1-.181.205l-.197.2-.613.613C3.73 6.23 4.618 8.004 6.305 9.693c1.686 1.687 3.461 2.576 4.504 1.533ZM9.328.056a7.604 7.604 0 0 1 6.62 6.62l-1.58.263a6.002 6.002 0 0 0-5.303-5.303l.263-1.58ZM8.8 3.218a4.401 4.401 0 0 1 3.985 3.985l-1.585.264a2.8 2.8 0 0 0-2.664-2.664L8.8 3.218Z" clip-rule="evenodd"/></svg>