<svg width="22" height="23" viewBox="0 0 22 23" fill="none" xmlns="http://www.w3.org/2000/svg">
<g filter="url(#filter0_d_4578_3243)">
<path fill-rule="evenodd" clip-rule="evenodd" d="M6.28548 15.2003C6.00148 14.8413 5.65648 14.1073 5.04247 13.2163C4.69447 12.7123 3.83148 11.7633 3.57448 11.2813C3.35148 10.8553 3.37548 10.6643 3.42848 10.3113C3.52248 9.68326 4.16648 9.19426 4.85348 9.26026C5.37248 9.30926 5.81248 9.65226 6.20848 9.97626C6.44748 10.1713 6.74148 10.5503 6.91848 10.7643C7.08148 10.9603 7.12148 11.0413 7.29548 11.2733C7.52548 11.5803 7.59748 11.7323 7.50948 11.3943C7.43848 10.8983 7.32247 10.0513 7.15447 9.30226C7.02647 8.73426 6.99548 8.64526 6.87348 8.20926C6.74448 7.74526 6.67848 7.42026 6.55748 6.92826C6.47348 6.58026 6.32248 5.86926 6.28148 5.46926C6.22448 4.92226 6.19447 4.03026 6.54548 3.62026C6.82048 3.29926 7.45147 3.20226 7.84247 3.40026C8.35447 3.65926 8.64547 4.40326 8.77847 4.70026C9.01747 5.23426 9.16548 5.85126 9.29448 6.66126C9.45848 7.69226 9.76047 9.12326 9.77047 9.42426C9.79447 9.05526 9.70248 8.27826 9.76648 7.92426C9.82448 7.60326 10.0945 7.23026 10.4325 7.12926C10.7185 7.04426 11.0535 7.01326 11.3485 7.07426C11.6615 7.13826 11.9915 7.36226 12.1145 7.57326C12.4765 8.19726 12.4835 9.47226 12.4985 9.40426C12.5845 9.02826 12.5695 8.17526 12.7825 7.82026C12.9225 7.58626 13.2795 7.37526 13.4695 7.34126C13.7635 7.28926 14.1245 7.27326 14.4335 7.33326C14.6825 7.38226 15.0195 7.67826 15.1105 7.82026C15.3285 8.16426 15.4525 9.13726 15.4895 9.47826C15.5045 9.61926 15.5635 9.08626 15.7825 8.74226C16.1885 8.10326 17.6255 7.97926 17.6805 9.38126C17.7055 10.0353 17.7005 10.0053 17.7005 10.4453C17.7005 10.9623 17.6885 11.2733 17.6605 11.6473C17.6295 12.0473 17.5435 12.9513 17.4185 13.3893C17.3325 13.6903 17.0475 14.3673 16.7665 14.7733C16.7665 14.7733 15.6925 16.0233 15.5755 16.5863C15.4575 17.1483 15.4965 17.1523 15.4735 17.5513C15.4505 17.9493 15.5945 18.4733 15.5945 18.4733C15.5945 18.4733 14.7925 18.5773 14.3605 18.5083C13.9695 18.4453 13.4855 17.6673 13.3605 17.4293C13.1885 17.1013 12.8215 17.1643 12.6785 17.4063C12.4535 17.7893 11.9695 18.4763 11.6275 18.5193C10.9595 18.6033 9.57347 18.5503 8.48847 18.5393C8.48847 18.5393 8.67348 17.5283 8.26148 17.1813C7.95648 16.9223 7.43148 16.3973 7.11748 16.1213L6.28548 15.2003Z" fill="white"/>
<path fill-rule="evenodd" clip-rule="evenodd" d="M6.28548 15.2003C6.00148 14.8413 5.65648 14.1073 5.04247 13.2163C4.69447 12.7123 3.83148 11.7633 3.57448 11.2813C3.35148 10.8553 3.37548 10.6643 3.42848 10.3113C3.52248 9.68326 4.16648 9.19426 4.85348 9.26026C5.37248 9.30926 5.81248 9.65226 6.20848 9.97626C6.44748 10.1713 6.74148 10.5503 6.91848 10.7643C7.08148 10.9603 7.12148 11.0413 7.29548 11.2733C7.52548 11.5803 7.59748 11.7323 7.50948 11.3943C7.43848 10.8983 7.32247 10.0513 7.15447 9.30226C7.02647 8.73426 6.99548 8.64526 6.87348 8.20926C6.74448 7.74526 6.67848 7.42026 6.55748 6.92826C6.47348 6.58026 6.32248 5.86926 6.28148 5.46926C6.22448 4.92226 6.19447 4.03026 6.54548 3.62026C6.82048 3.29926 7.45147 3.20226 7.84247 3.40026C8.35447 3.65926 8.64547 4.40326 8.77847 4.70026C9.01747 5.23426 9.16548 5.85126 9.29448 6.66126C9.45848 7.69226 9.76047 9.12326 9.77047 9.42426C9.79447 9.05526 9.70248 8.27826 9.76648 7.92426C9.82448 7.60326 10.0945 7.23026 10.4325 7.12926C10.7185 7.04426 11.0535 7.01326 11.3485 7.07426C11.6615 7.13826 11.9915 7.36226 12.1145 7.57326C12.4765 8.19726 12.4835 9.47226 12.4985 9.40426C12.5845 9.02826 12.5695 8.17526 12.7825 7.82026C12.9225 7.58626 13.2795 7.37526 13.4695 7.34126C13.7635 7.28926 14.1245 7.27326 14.4335 7.33326C14.6825 7.38226 15.0195 7.67826 15.1105 7.82026C15.3285 8.16426 15.4525 9.13726 15.4895 9.47826C15.5045 9.61926 15.5635 9.08626 15.7825 8.74226C16.1885 8.10326 17.6255 7.97926 17.6805 9.38126C17.7055 10.0353 17.7005 10.0053 17.7005 10.4453C17.7005 10.9623 17.6885 11.2733 17.6605 11.6473C17.6295 12.0473 17.5435 12.9513 17.4185 13.3893C17.3325 13.6903 17.0475 14.3673 16.7665 14.7733C16.7665 14.7733 15.6925 16.0233 15.5755 16.5863C15.4575 17.1483 15.4965 17.1523 15.4735 17.5513C15.4505 17.9493 15.5945 18.4733 15.5945 18.4733C15.5945 18.4733 14.7925 18.5773 14.3605 18.5083C13.9695 18.4453 13.4855 17.6673 13.3605 17.4293C13.1885 17.1013 12.8215 17.1643 12.6785 17.4063C12.4535 17.7893 11.9695 18.4763 11.6275 18.5193C10.9595 18.6033 9.57347 18.5503 8.48847 18.5393C8.48847 18.5393 8.67348 17.5283 8.26148 17.1813C7.95648 16.9223 7.43148 16.3973 7.11748 16.1213L6.28548 15.2003Z" stroke="black" stroke-width="0.75" stroke-linecap="round" stroke-linejoin="round"/>
<path d="M14.5205 15.5548V12.0958" stroke="black" stroke-width="0.75" stroke-linecap="round"/>
<path d="M12.5048 15.5665L12.4888 12.0935" stroke="black" stroke-width="0.75" stroke-linecap="round"/>
<path d="M10.5088 12.1251L10.5298 15.5511" stroke="black" stroke-width="0.75" stroke-linecap="round"/>
</g>
<defs>
<filter id="filter0_d_4578_3243" x="0" y="0.891235" width="22" height="25.1193" filterUnits="userSpaceOnUse" color-interpolation-filters="sRGB">
<feFlood flood-opacity="0" result="BackgroundImageFix"/>
<feColorMatrix in="SourceAlpha" type="matrix" values="0 0 0 0 0 0 0 0 0 0 0 0 0 0 0 0 0 0 127 0" result="hardAlpha"/>
<feOffset dy="1"/>
<feGaussianBlur stdDeviation="1.5"/>
<feColorMatrix type="matrix" values="0 0 0 0 0 0 0 0 0 0 0 0 0 0 0 0 0 0 0.35 0"/>
<feBlend mode="normal" in2="BackgroundImageFix" result="effect1_dropShadow_4578_3243"/>
<feBlend mode="normal" in="SourceGraphic" in2="effect1_dropShadow_4578_3243" result="shape"/>
</filter>
</defs>
</svg>
