<svg xmlns="http://www.w3.org/2000/svg" width="24" height="24" fill="none" viewBox="0 0 24 24"><path fill="#FCFCFC" fill-rule="evenodd" d="M24 12a12 12 0 1 1-24 0 12 12 0 0 1 24 0ZM12.43 8.86c-1.17.48-3.5 1.49-7 3.01-.57.23-.86.45-.9.67-.04.36.42.5 1.04.7l.27.08c.6.2 1.43.44 1.86.45.39 0 .82-.16 1.3-.48 3.27-2.21 4.96-3.33 5.06-3.35.08-.02.18-.04.25.02.07.07.07.18.06.22-.05.19-1.84 1.86-2.77 2.72a28.24 28.24 0 0 0-.82.79c-.57.54-1 .96.02 1.63.5.32.89.59 1.28.85a88.77 88.77 0 0 0 1.8 1.23c.5.35.95.67 1.5.62.32-.03.65-.33.82-1.23.4-2.13 1.18-6.73 1.36-8.63.01-.16 0-.31-.02-.47a.5.5 0 0 0-.17-.33.78.78 0 0 0-.46-.14c-.46.01-1.15.25-4.48 1.64Z" clip-rule="evenodd"/></svg>