<svg xmlns="http://www.w3.org/2000/svg" width="32" height="32" fill="none" viewBox="0 0 32 32"><path fill="#2D3440" d="M19.19 5.07a5.3 5.3 0 0 0-1.37-3.59A4.49 4.49 0 0 0 14.52 0c-1.24 0-2.42.53-3.3 1.48a5.3 5.3 0 0 0-1.36 3.59v14.75a7.69 7.69 0 0 0-1.07 8.38 7 7 0 0 0 2.17 2.6 6.14 6.14 0 0 0 6.25.62c1-.46 1.89-1.19 2.57-2.12a7.78 7.78 0 0 0 1.13-6.7 7.3 7.3 0 0 0-1.72-2.98V5.07Zm.17 19.72c0 .88-.2 1.75-.58 2.52a5.02 5.02 0 0 1-1.63 1.9 4.5 4.5 0 0 1-4.62.28 4.88 4.88 0 0 1-1.82-1.68 5.44 5.44 0 0 1-.47-5c.32-.8.83-1.51 1.47-2.05V5.06c0-.8.3-1.58.82-2.15a2.7 2.7 0 0 1 2-.9c.74 0 1.45.33 1.98.9.53.57.82 1.35.82 2.16v15.5c.63.47 1.14 1.1 1.5 1.84.35.74.53 1.55.53 2.38Z"/><path fill="#2D3440" d="M15.53 21.64V5.14c0-.27-.1-.52-.27-.71a.9.9 0 0 0-.65-.3.9.9 0 0 0-.66.3c-.17.19-.27.44-.27.71v16.5c-.62.24-1.14.7-1.47 1.32a3.25 3.25 0 0 0 .6 3.84c.5.46 1.14.71 1.8.71.65 0 1.29-.25 1.79-.7a3.25 3.25 0 0 0 .6-3.84 2.85 2.85 0 0 0-1.47-1.33ZM26.67 3.94H21.1v2.02h5.57V3.94ZM26.67 7.97H21.1V10h5.57V7.97ZM26.67 12H21.1v2.02h5.57V12ZM26.67 16.03H21.1v2.02h5.57v-2.02Z"/></svg>