<svg xmlns="http://www.w3.org/2000/svg" width="15" height="14" fill="none" viewBox="0 0 15 14"><path fill="#2D3440" fill-rule="evenodd" d="M1.17.1a.67.67 0 1 0 0 1.34h1.77l.47 2.34v.05l.97 4.83a1.83 1.83 0 0 0 1.82 1.47h5.62a1.83 1.83 0 0 0 1.82-1.47l.93-4.86a.67.67 0 0 0-.66-.8h-9.3L4.14.65a.67.67 0 0 0-.66-.53H1.17Zm4.52 8.3-.81-4.06h8.23l-.78 4.07a.5.5 0 0 1-.49.39H6.18a.5.5 0 0 1-.49-.4Zm-1.13 3.96a1.25 1.25 0 1 1 2.49 0 1.25 1.25 0 0 1-2.5 0Zm6.37 0a1.25 1.25 0 1 1 2.5 0 1.25 1.25 0 0 1-2.5 0Z" clip-rule="evenodd"/></svg>