<svg xmlns="http://www.w3.org/2000/svg" width="16" height="16" fill="none" viewBox="0 0 16 16"><path fill="#2D3440" fill-rule="evenodd" d="M1.62 1.62a.96.96 0 0 1 .68-.29h8.95a.67.67 0 1 0 0-1.33H2.3A2.3 2.3 0 0 0 0 2.3v11.4A2.3 2.3 0 0 0 2.3 16h11.4a2.3 2.3 0 0 0 2.3-2.3V8a.67.67 0 0 0-1.34 0v5.7a.96.96 0 0 1-.96.97H2.3a.96.96 0 0 1-.97-.97V2.3c0-.26.1-.5.29-.68Zm14.2.32a.67.67 0 1 0-.97-.92L7.6 8.66 5.78 6.73a.67.67 0 0 0-.97.91l2.32 2.45a.67.67 0 0 0 .97 0l7.72-8.15Z" clip-rule="evenodd"/></svg>