<svg xmlns="http://www.w3.org/2000/svg" width="137" height="56" fill="currentColor" viewBox="0 0 137 56"><path d="M52.79 37.57a3.45 3.45 0 0 0-1.91.33s-2.68 2.24-15.89-.34c-9.71-1.9-14.76-1.71-14.76-1.71s1.63-11.18 1.18-14.31a.9.9 0 0 0-.93-.81c-.97 0-1.56.37-1.56.89.08 2.11 0 4.23-.22 6.33a5.36 5.36 0 0 1-5.5 3.5c-4.23-.29-5.12-3.35-5.5-5.43-.36-2.08-.58-7.9.53-10.29 0 0 6.38.23 10.39-3.2 4-3.44 3.75-6.4 1.86-7.68-1.9-1.27-6.34-1.05-9.75 2.08A17.33 17.33 0 0 0 6.2 13.2s-5-1.08-3.86-6.34c1.22-5.49 8.69-4.84 8.69-4.84 1.56.3 1.63.44 2.15-.08.51-.51.89-1.86-1.56-1.94C9.17-.08 1.82 1.14.42 6.04c-1.5 5.21 1.27 8.94 5 9.52 0 0-2.04 9.04.48 13.5a7.95 7.95 0 0 0 7.66 4.4c1.47 0 4.07-.81 4.8-2 0 0-.34 3.2-.63 4.36 0 0-6.18-.08-8.12.9-3.28 1.74-2.6 5.83-1.33 7.28 1.07 1.23 4.28 1.9 6.6.8a8.86 8.86 0 0 0 4.95-6.89c3.76-.19 7.52.22 11.15 1.22 5.5 1.65 13.15 3.18 15.44 3.18 2.3 0 7.13-.66 7.42-2.58.16-1.27-.31-1.93-1.05-2.16ZM14.12 7.67s2.92-2.23 4.32-.83a1.93 1.93 0 0 1 .08 2.52c-.59.77-2.14 3.2-9.5 4.4 0 0 2.32-4.07 5.1-6.08Zm.24 34.8s-4.03 2.21-4.45-.78a2.83 2.83 0 0 1 1.46-3.23c.7-.35 1.66-.79 5.86-.64a5.67 5.67 0 0 1-2.87 4.66Z"/><path d="M65.51 21.23V27.38c-.07.81-.33 1.59-.76 2.27-.27.5-.63.94-1.05 1.32-.47.4-.79-.51-.96-.9-1.24-2.6-.64-6.09-.16-8.82.22-1.3-2.42-.96-2.62.2-.48 2.32-.65 4.7-.5 7.07a1.66 1.66 0 0 0-1.18.66c-.46.97-1.79 4.2-3.41 2.91-1.18-.9-1.3-3.34-1.43-4.71-.14-1.9.1-3.8.73-5.6-.05.15 1.02-2.53 1.49-1.53a3.26 3.26 0 0 1-.55 2.8c-1.4 1.06.78 1.5 1.62.85 1.6-1.2 2.68-5.1-.06-5.57-3.09-.52-4.84 2.61-5.5 5.1-.34 1.42-.49 2.9-.44 4.36-.42.75-1.87 3.17-2.71 3.58-1 .52-.98-.2-.95-.67.04-.47.48-4.6.73-7.4.2-1.1.05-2.25-.45-3.26-.38-.78-3.56-2.53-6.36.75a10.66 10.66 0 0 0-2.74 6.26l-.63 1.21c-1.34 2.46-3.02 3.5-3.62 1.8-.6-1.79-.82-3.67-.66-5.54A34.51 34.51 0 0 0 37.84 14c1.34-5.96 1.09-8.92.37-9.42-.73-.5-3.79-1.73-5.63 5.6a47.93 47.93 0 0 0-1.42 15.98c-.28.61-.64 1.34-1.1 2.17-1.33 2.46-3 3.5-3.6 1.8-.6-1.79-.81-3.67-.64-5.54a34.51 34.51 0 0 0 4.5-10.51c1.39-6.04 1.11-9 .39-9.5-.72-.5-3.79-1.73-5.62 5.6-1.83 7.32-2.2 15.3-.45 20.67 0 0 .97 3.02 2.77 2.8 1.48-.2 3.25-1.66 4.3-4.4.11.54.26 1.08.43 1.6 0 0 .96 3.02 2.76 2.8 1.22-.15 2.67-1.18 3.69-3.06.63 1.64 2 2.99 3.75 2.68 2.37-.43 2.86-1.72 2.86-1.72s-.04 2.12 1.48 2.12c1.36 0 2.43-.8 3.5-2.82l.7-1.33c.3 1.93 1.1 3.64 2.67 4.32 2.67 1.17 5-1.04 6.37-3.22a3.86 3.86 0 0 0 2.2 2.34 3.32 3.32 0 0 0 3.36-.83v3.14c-.49-.02-.97.11-1.38.38a10.47 10.47 0 0 0-3.73 9.4 2.9 2.9 0 0 0 2.83 2.67c.47 0 .94-.1 1.36-.33 2.76-1.2 3.18-5.36 3.41-7.9.56-6.11.13-12.47.13-18.6 0-1.12-2.59-.6-2.59.33ZM26.93 11.2c.62-2.37 1.19-3.32 1.78-3.32.6 0 .83.64.41 2.68a52.6 52.6 0 0 1-3.64 11.4s.84-8.38 1.45-10.76Zm7.5 0c.61-2.37 1.18-3.32 1.74-3.32.55 0 .83.64.41 2.68-.41 2.05-1.78 7.71-3.64 11.4 0 0 .9-8.38 1.49-10.76Zm11.45 11.15c-.07.52-.4 3.84-.89 5.63-.48 1.79-.81 2.42-2.25 3.04-1.44.61-2.17-1.27-2.17-1.27-1.03-2.86.34-5.37 1.48-7.09 1.14-1.71 2.3-1.86 2.95-1.78a1.2 1.2 0 0 1 .88 1.47Zm19.56 16.1c.06 2.4-.42 4.79-1.4 6.98-.63.13-.9-.1-1.1-1.1a9.63 9.63 0 0 1 0-2.91 8.06 8.06 0 0 1 2.47-4.6c.04.56.04 1.1.03 1.63ZM82.18 18.7a9.59 9.59 0 0 1-5.08-5.37c-1.14-3.42 2.6-5.94 5.58-5.79 2.98.15 4.58 3.24 4.45 6-.05.98-.66 3.18-1.87 2.03a5.7 5.7 0 0 1-1.39-3.24c-.17-1.08-2.76-.44-2.58.7.52 3.27 4.03 6.87 7.04 3.45A6.59 6.59 0 0 0 86 6.43a9.08 9.08 0 0 0-11.15 3.88c-2.43 4.33 2.44 8.57 5.9 10.12C86.3 23.41 86.5 33 79.13 33.06a7.4 7.4 0 0 1-6.85-5.02c-.5-1.5-.25-6.75 1.78-7.15 1.61-.32 1.18-1.8-.4-1.52-3.3.65-4.52 4.93-4.2 7.93.52 4.77 4.97 7.45 9.46 7.41a8.5 8.5 0 0 0 8.58-6.75 8.4 8.4 0 0 0-5.32-9.26Z"/><path d="M98.73 32.9c-2.54-1.39-1.09-6.76-.7-8.83.24-1.33 1.37-3.39-.44-3.85-2.13-.51-4.66 1.52-6.49 3.46 0-2.24.17-4.48.5-6.7a13.9 13.9 0 0 0 6.39-6.6c1.16-2.33 1.72-7.16-2.2-5.74-3.55 1.25-4.77 5.36-5.89 8.66a26.93 26.93 0 0 0-.97 3.91c-.35.15-.72.28-1.08.4-1.48.46-1.29 1.25.2.79l.73-.23c-.71 5.01-.23 10.27.22 15.2 0 .48 2.67 0 2.58-.7-.2-2.2-.37-4.4-.44-6.58.22-.06.4-.18.56-.35a20.1 20.1 0 0 1 3.56-3.51l.41-.3c.6-.48.71-.49.34 0-.14.85-.32 1.7-.55 2.52-.5 2.69-1.9 7.96 1.2 9.65.66.34 3.06-.67 2.07-1.2Zm-5.78-21.56c.27-.8.64-1.58.98-2.35.42-.96 1.54-4.26 2.35-2.68.65 1.26-.38 3.33-.83 4.53a10.63 10.63 0 0 1-3.56 4.74c.26-1.43.61-2.85 1.06-4.24Z"/><path d="M108.3 26.64c0-2.95-.33-6.72-3.83-7.03-3.84-.35-5.34 3.68-5.4 6.7a.53.53 0 0 0 .32.5c0 2.82.67 6.5 4.01 6.44 3.72-.06 4.9-3.32 4.9-6.61Zm-4.45 4.9c-2.18-.9-1.98-4.66-1.84-6.48a.48.48 0 0 0-.21-.47c.27-1.79.96-4.47 2.55-3.14 1.26 1.1 1.29 3.71 1.35 5.22.05 1.06-.08 5.53-1.84 4.87h-.01ZM136.35 42.78c-1-2.58-3.2-3.58-5.6-3.69-.27-.65-.61-1.27-1.01-1.86-3.48-5.17-11.75-4.47-17.35-1.78 0-.82-.08-1.63-.11-2.45a6.49 6.49 0 0 0 5.8-2.68c1.48-2.14 1.27-5.93.68-8.32-.55-2.26-2.74-1.86-4.39-1.1-.6.28-1.16.66-1.66 1.12 0-.6.1-1.2.15-1.79.1-1.37-2.53-1.03-2.62.2-.41 5.53-.27 11.04-.4 16.57a13.2 13.2 0 0 0-4.77 10.81c0 2.03 1.72 3.58 3.56 2.13 2.57-1.98 3.36-5.93 3.71-8.94.15-1.35.2-2.7.14-4.05a12.43 12.43 0 0 1 13.54-.1 6.2 6.2 0 0 1 2.02 2.42c-1.42.26-2.8.7-4.11 1.33-1.53.73-3.79 2.47-3.68 4.4a2.69 2.69 0 0 0 2.04 2.69.8.8 0 0 0 .25.08c5.47.9 9.54-2.35 8.76-6.92 2.67 1.46 3.66 4.84 2.71 7.74-2.13 6.53-10.32 7.99-15.09 3.62-.52-.46-2.84.52-2.43.9 6.9 6.32 24.06.47 19.86-10.33Zm-26.66-1.58a13.92 13.92 0 0 1-1.02 4.6c-.22.48-.46.96-.72 1.42 0 0-.23.06-.28-.64 0-2.5.72-4.96 2.09-7.06l-.07 1.68Zm2.78-15.98a.7.7 0 0 0 .14-.15c.48-.8 1.04-1.56 1.69-2.24.47-.54 1-1 1.61-1.36.29.14.58.9.69 1.9.27 2.49.39 9.04-3.51 8.42-.3-.02-.6.04-.9.15 0-2.27.12-4.49.28-6.72Zm11.65 21.23h-.05c-1.5-.35-1.34-1.78-1.14-2.75.43-2.26 3.18-3.48 5.44-3.58 1.15 3.22.26 7.08-4.25 6.33Z"/></svg>
