<svg xmlns="http://www.w3.org/2000/svg" width="14" height="15" fill="none" viewBox="0 0 14 15"><path fill="#2D3440" fill-rule="evenodd" d="M8 1.52c0-.36.3-.66.67-.66h2.66a2 2 0 0 1 2 2v9.33a2 2 0 0 1-2 2H8.67a.67.67 0 0 1 0-1.33h2.66a.67.67 0 0 0 .67-.67V2.86a.67.67 0 0 0-.67-.67H8.67A.67.67 0 0 1 8 1.52Zm-3.14 2.2a.67.67 0 0 1 .94 0l3.33 3.33a.67.67 0 0 1 .2.47.66.66 0 0 1-.2.48L5.8 11.33a.67.67 0 1 1-.94-.94l2.2-2.2H.66a.67.67 0 1 1 0-1.33h6.4l-2.2-2.2a.67.67 0 0 1 0-.94Z" clip-rule="evenodd"/></svg>
