<svg xmlns="http://www.w3.org/2000/svg" width="108" height="18" fill="none" viewBox="0 0 108 18"><path fill="#fff" fill-rule="evenodd" d="M103.699 2.659v14.79h-2.11V2.66h-3.75V1.015h9.612V2.66h-3.752Zm-8.123 8.698c-.368.462-.829.79-1.383.986-.555.196-1.216.294-1.982.294-.36 0-.766-.024-1.219-.07a11.231 11.231 0 0 1-1.125-.165v5.048h-2.11V1.25A11.043 11.043 0 0 1 89.55.886c.602-.07 1.255-.106 1.958-.106.938 0 1.735.098 2.391.294.657.195 1.188.52 1.595.974.406.454.703 1.057.89 1.808.188.751.282 1.683.282 2.794 0 1.142-.09 2.097-.27 2.864-.18.767-.453 1.382-.82 1.843Zm-1.196-6.82c-.117-.564-.3-1.01-.55-1.338a1.992 1.992 0 0 0-.95-.693c-.383-.133-.84-.2-1.372-.2h-1.641v8.687h1.641c.532 0 .989-.066 1.372-.2.383-.132.699-.363.95-.692.25-.329.433-.775.55-1.338.117-.564.176-1.268.176-2.113s-.059-1.55-.176-2.113Zm-11.898 8.687h-4.69l-1.054 4.226h-2.11l3.985-16.435h3.048l3.986 16.435h-2.11l-1.055-4.226Zm-2.298-9.861h-.093l-1.947 8.217h3.986l-1.946-8.217ZM70.056 5.24h-.117l-3.4 10.096h-2.11L61.03 5.24h-.116l-.704 12.209H58.1l.938-16.435h2.579l3.822 11.27h.093l3.822-11.27h2.579l.938 16.435h-2.11L70.055 5.24ZM54.301 15.924c-.437.642-.965 1.095-1.582 1.361-.618.267-1.325.4-2.122.4-.797 0-1.504-.133-2.122-.4-.617-.266-1.145-.72-1.582-1.361-.438-.642-.77-1.507-.997-2.595-.226-1.087-.34-2.453-.34-4.097 0-1.643.114-3.009.34-4.097.227-1.087.559-1.952.997-2.594.437-.642.965-1.096 1.582-1.362C49.093.913 49.8.78 50.597.78c.797 0 1.504.133 2.122.4.617.265 1.145.72 1.582 1.361.438.642.77 1.507.997 2.594.226 1.088.34 2.454.34 4.097 0 1.644-.114 3.01-.34 4.097-.227 1.088-.56 1.953-.997 2.595Zm-1.02-10.166c-.164-.908-.379-1.628-.644-2.16-.266-.533-.579-.9-.938-1.104a2.212 2.212 0 0 0-1.102-.305c-.375 0-.742.102-1.102.305-.36.204-.672.571-.938 1.104-.266.532-.48 1.252-.645 2.16-.164.907-.246 2.066-.246 3.474 0 1.41.082 2.567.247 3.475.164.908.379 1.628.644 2.16.266.532.579.9.938 1.104.36.203.727.305 1.102.305.375 0 .742-.102 1.102-.305.36-.204.672-.572.938-1.104.265-.532.48-1.252.644-2.16.165-.908.247-2.066.247-3.475 0-1.408-.082-2.567-.247-3.474ZM40.633 9.937h-4.924v7.513H33.6V1.015h2.11v7.278h4.924V1.015h2.11V17.45h-2.11V9.937ZM29.497 17.45l-2.93-7.044-2.93 7.044h-2.11l3.516-8.452-3.165-7.983h2.11l2.579 6.574 2.579-6.574h2.11L28.09 8.998l3.517 8.452h-2.11ZM12.265 1.015h7.972V2.66h-5.861v5.4h5.157v1.643h-5.157v6.104h5.86v1.644h-7.97V1.015ZM6.64 17.45h-2.11V2.659H.778V1.015h9.612V2.66H6.639v14.79Z" clip-rule="evenodd"/></svg>