<svg xmlns="http://www.w3.org/2000/svg" width="16" height="17" fill="none" viewBox="0 0 16 17"><path fill="#fff" fill-rule="evenodd" d="M8 16.614a8 8 0 1 1 0-16 8 8 0 0 1 0 16Zm5.382-4.273a6.545 6.545 0 1 0-10.763 0c.818-1.08 2.741-1.545 5.381-1.545s4.563.464 5.382 1.546Zm-1.044 1.175c-.213-.765-1.742-1.265-4.338-1.265s-4.125.5-4.338 1.265A6.521 6.521 0 0 0 8 15.16a6.52 6.52 0 0 0 4.338-1.644ZM8 4.251c-1.76 0-2.91 1.277-2.91 2.909 0 2.493 1.282 3.636 2.91 3.636 1.613 0 2.91-1.105 2.91-3.49C10.91 5.647 9.755 4.25 8 4.25ZM6.545 7.16c0 1.65.596 2.182 1.455 2.182.857 0 1.455-.51 1.455-2.037 0-.908-.57-1.6-1.455-1.6-.92 0-1.455.594-1.455 1.455Z" clip-rule="evenodd"/></svg>