<svg width="22" height="22" viewBox="0 0 22 22" fill="none" xmlns="http://www.w3.org/2000/svg">
<path d="M11.3224 0.738702C11.273 0.7395 11.2241 0.74797 11.1773 0.763808C10.3699 0.775733 9.57633 0.862324 8.82483 1.0502C8.49889 1.12956 8.17674 1.22984 7.85686 1.34682C7.78023 1.35545 7.70683 1.38258 7.643 1.42585C7.23407 1.57538 6.83721 1.74859 6.46024 1.94843C5.84144 2.26981 5.26187 2.66888 4.71957 3.11259C4.64698 3.14208 4.58278 3.18903 4.53267 3.24927C4.48201 3.29164 4.43135 3.33391 4.38204 3.37945C3.75425 3.93748 3.191 4.56996 2.70739 5.26796C2.56508 5.47257 2.4347 5.6857 2.30942 5.90025C2.25926 5.9567 2.22324 6.02427 2.20435 6.09738C1.65459 7.07005 1.2579 8.14206 1.04855 9.27464C1.01652 9.34164 1.0006 9.41519 1.00206 9.48944C0.974355 9.64407 0.947796 9.79991 0.930462 9.96459C0.881131 10.3765 0.856075 10.7936 0.856075 11.2189C0.856075 11.6443 0.881131 12.0614 0.930462 12.4733C0.947796 12.638 0.974355 12.7938 1.00206 12.9484C1.00074 13.0224 1.01666 13.0956 1.04855 13.1623C1.2577 14.2944 1.65321 15.3663 2.20249 16.3386C2.22165 16.4126 2.25833 16.4808 2.30942 16.5376C2.43483 16.7524 2.56491 16.966 2.70739 17.1709C3.19152 17.8695 3.75486 18.4967 4.38018 19.0575C4.42934 19.103 4.48033 19.1445 4.53081 19.1868L4.53174 19.1877C4.58215 19.2489 4.64703 19.2965 4.7205 19.3262H4.72143C5.26328 19.7694 5.84205 20.1684 6.46024 20.4895C6.83721 20.6893 7.23407 20.8625 7.643 21.012C7.70656 21.0552 7.77962 21.0823 7.85593 21.0911C8.17608 21.2082 8.4986 21.3083 8.82483 21.3877C9.57633 21.5756 10.3699 21.6622 11.1773 21.6741C11.2762 21.7075 11.3834 21.7075 11.4823 21.6741C12.2897 21.6622 13.0833 21.5756 13.8348 21.3877C14.1608 21.3083 14.4829 21.208 14.8028 21.0911C14.8794 21.0824 14.9528 21.0553 15.0167 21.012C15.4256 20.8625 15.8224 20.6893 16.1994 20.4895C16.8182 20.1681 17.3978 19.769 17.9401 19.3253C18.0127 19.2958 18.0769 19.2489 18.127 19.1886C18.1782 19.1458 18.2297 19.1036 18.2795 19.0575C18.9048 18.4967 19.4681 17.8695 19.9523 17.1709V17.1699C20.0946 16.9653 20.225 16.7522 20.3502 16.5376C20.4004 16.4812 20.4364 16.4136 20.4553 16.3405C21.0051 15.3678 21.4018 14.2958 21.6111 13.1632C21.6431 13.0962 21.6591 13.0227 21.6576 12.9484C21.6853 12.7938 21.7119 12.638 21.7292 12.4733C21.7785 12.0614 21.8036 11.6443 21.8036 11.2189C21.8036 10.7936 21.7785 10.3765 21.7292 9.96459C21.7119 9.79991 21.6853 9.64407 21.6576 9.48944C21.6589 9.41551 21.643 9.34229 21.6111 9.27557C21.402 8.14349 21.0064 7.0716 20.4572 6.09924C20.438 6.02529 20.4013 5.95704 20.3502 5.90025C20.225 5.6857 20.0946 5.47257 19.9523 5.26796V5.26703C19.4687 4.56928 18.9052 3.93733 18.2776 3.37945C18.229 3.33451 18.1788 3.29297 18.1288 3.25113C18.1285 3.25082 18.1282 3.25051 18.1279 3.2502C18.0775 3.18903 18.0126 3.14141 17.9392 3.11166C17.9388 3.11166 17.9385 3.11166 17.9382 3.11166C17.3964 2.66849 16.8176 2.26949 16.1994 1.94843C15.8224 1.74859 15.4256 1.57538 15.0167 1.42585C14.9531 1.38272 14.88 1.3556 14.8037 1.34682C14.4836 1.2297 14.1611 1.12963 13.8348 1.0502C13.0833 0.862324 12.2897 0.775733 11.4823 0.763808C11.4308 0.746371 11.3767 0.737879 11.3224 0.738702ZM7.75458 1.37657C7.7513 1.37773 7.74859 1.38007 7.74528 1.38122C7.74381 1.38179 7.74216 1.38158 7.74063 1.38215L7.75458 1.37657ZM14.9051 1.37657L14.919 1.38215C14.9175 1.38158 14.9159 1.38179 14.9144 1.38122C14.9111 1.38007 14.9084 1.37773 14.9051 1.37657ZM10.8537 1.75502V3.6584C10.3971 3.68729 9.93926 3.71526 9.50827 3.8202C9.50796 3.8202 9.50765 3.8202 9.50734 3.8202C9.39726 3.8472 9.28989 3.88797 9.18096 3.91969L8.53007 2.13346C8.70347 2.08012 8.87024 2.01883 9.05264 1.97446C9.05357 1.97415 9.0545 1.97384 9.05543 1.97353C9.62727 1.83057 10.2401 1.78625 10.8537 1.75502ZM11.8059 1.75502C12.4196 1.78625 13.0324 1.83057 13.6042 1.97353C13.6052 1.97384 13.6061 1.97415 13.607 1.97446C13.7894 2.01883 13.9562 2.08012 14.1296 2.13346L13.4787 3.91969C13.3698 3.88797 13.2624 3.8472 13.1523 3.8202C13.152 3.8202 13.1517 3.8202 13.1514 3.8202C12.7204 3.71526 12.2626 3.68729 11.8059 3.6584V1.75502ZM7.63835 2.46542L8.28831 4.2535C8.12159 4.32632 7.95173 4.38819 7.78992 4.47573L7.78899 4.47666C7.53357 4.61114 7.30571 4.79868 7.06464 4.96204C6.96738 4.97485 6.87645 5.01739 6.80428 5.08385L5.60664 3.65747C6.02216 3.34293 6.44188 3.03001 6.90284 2.79086C6.90409 2.79025 6.90533 2.78963 6.90656 2.789C7.14462 2.66281 7.39271 2.56876 7.63835 2.46542ZM15.0213 2.46542C15.2669 2.56876 15.515 2.66281 15.7531 2.789C15.7543 2.78963 15.7556 2.79025 15.7568 2.79086C16.2178 3.03001 16.6375 3.34293 17.053 3.65747L15.8554 5.08385C15.7831 5.01773 15.6922 4.97552 15.595 4.96297C15.3538 4.7995 15.1262 4.61122 14.8707 4.47666C14.7085 4.38889 14.5384 4.32649 14.3713 4.2535L15.0213 2.46542ZM4.86742 4.25722L6.09574 5.72079C5.71863 6.08036 5.35683 6.45936 5.05804 6.89239C5.03173 6.93018 5.01164 6.96965 4.98644 7.00769L3.33597 6.0546C3.38782 5.97405 3.43527 5.88878 3.48939 5.81099C3.48939 5.81068 3.48939 5.81037 3.48939 5.81006C3.88687 5.23638 4.36119 4.72826 4.86742 4.25722ZM17.7922 4.25722C18.2985 4.72826 18.7728 5.23638 19.1703 5.81006C19.1703 5.81037 19.1703 5.81068 19.1703 5.81099C19.2244 5.88878 19.2718 5.97405 19.3237 6.0546L17.6732 7.00769C17.648 6.96964 17.6279 6.93018 17.6016 6.89239L17.5998 6.89053C17.3013 6.45831 16.9404 6.07976 16.5639 5.72079L17.7922 4.25722ZM10.8537 4.61056V6.48233C10.159 6.55182 9.50953 6.77498 8.93455 7.11183L7.82804 5.58968C7.96692 5.50382 8.08779 5.39483 8.23345 5.31817C8.235 5.31725 8.23656 5.31632 8.2381 5.31538C8.47976 5.18431 8.73902 5.07374 9.00336 4.97506C9.03952 4.96586 9.07447 4.95244 9.1075 4.93508C9.30774 4.86159 9.51359 4.79857 9.73422 4.74446L9.73329 4.74539C10.0923 4.65799 10.4744 4.63791 10.8537 4.61056ZM11.8059 4.61056C12.1852 4.63791 12.5674 4.65798 12.9264 4.74539L12.9254 4.74446C13.1464 4.79865 13.3526 4.86146 13.5531 4.93508C13.5867 4.9529 13.6222 4.96663 13.6591 4.97599C13.9224 5.07443 14.1807 5.18477 14.4216 5.31538C14.4231 5.31632 14.4247 5.31725 14.4262 5.31817C14.5719 5.39483 14.6927 5.50382 14.8316 5.58968L13.7251 7.11183C13.1501 6.77498 12.5007 6.55182 11.8059 6.48233V4.61056ZM7.04139 6.1262L8.16557 7.67346C7.66124 8.12414 7.25126 8.67785 6.97444 9.3044L5.1659 8.71488C5.2732 8.44362 5.39115 8.17983 5.53505 7.93288C5.55711 7.90261 5.57552 7.86984 5.58991 7.83525C5.67051 7.69668 5.75234 7.56257 5.84096 7.43542C5.84128 7.4348 5.84159 7.43418 5.84189 7.43356C6.14815 6.98971 6.50886 6.58448 6.90935 6.22848C6.90998 6.22787 6.91059 6.22725 6.91121 6.22662C6.9406 6.20017 6.95738 6.1863 6.97816 6.16897C6.97878 6.16867 6.9794 6.16836 6.98002 6.16805C7.00154 6.15572 7.02206 6.14173 7.04139 6.1262ZM15.6183 6.1262C15.6371 6.14101 15.657 6.15437 15.6778 6.16619C15.6992 6.18391 15.7175 6.19879 15.7484 6.22662C15.7491 6.22725 15.7497 6.22787 15.7503 6.22848C16.1508 6.58448 16.5115 6.98971 16.8178 7.43356C16.8181 7.43418 16.8184 7.4348 16.8187 7.43542C16.9075 7.56278 16.989 7.69736 17.0697 7.83618C17.0843 7.87146 17.103 7.90486 17.1255 7.93567C17.1258 7.93598 17.1262 7.93629 17.1265 7.9366C17.2686 8.18089 17.3867 8.44361 17.4965 8.71395L15.6852 9.3044C15.4084 8.67785 14.9984 8.12414 14.4941 7.67346L15.6183 6.1262ZM2.87941 6.8896L4.52989 7.84176C4.41982 8.06383 4.29775 8.28089 4.21188 8.5131V8.51403C4.18695 8.57785 4.17841 8.64933 4.15516 8.71395C4.11658 8.76324 4.0881 8.81966 4.07135 8.87997C4.05459 8.94028 4.0499 9.0033 4.05752 9.06543C4.02056 9.18674 3.98486 9.30852 3.95431 9.43272L2.07603 9.10169C2.2515 8.32365 2.52206 7.58281 2.87941 6.8896ZM19.7802 6.8896C20.1376 7.58281 20.4082 8.32365 20.5836 9.10169L18.7072 9.43272C18.6766 9.30597 18.6404 9.18125 18.6031 9.05706C18.6156 8.93744 18.5824 8.81752 18.5101 8.72139C18.486 8.65378 18.4786 8.57997 18.4524 8.5131C18.364 8.28179 18.2423 8.06328 18.1316 7.84083L19.7802 6.8896ZM11.274 7.4131C11.3123 7.41777 11.351 7.41777 11.3893 7.4131C12.1635 7.42498 12.8808 7.66413 13.4759 8.06957C13.5231 8.12578 13.5826 8.17033 13.6498 8.19975C14.2244 8.64137 14.6667 9.24268 14.9144 9.93948C14.9206 10.0151 14.9449 10.0881 14.985 10.1524C15.0832 10.491 15.1385 10.848 15.1385 11.2189C15.1385 11.5893 15.0828 11.9455 14.985 12.2836C14.9446 12.3485 14.9203 12.4222 14.9144 12.4984C14.667 13.1944 14.2253 13.7948 13.6516 14.2363C13.5836 14.266 13.5234 14.3112 13.4759 14.3683C12.8798 14.7744 12.1612 15.0136 11.3856 15.0248C11.3473 15.0201 11.3086 15.0201 11.2703 15.0248C9.6375 14.9997 8.26326 13.9559 7.74528 12.4984C7.73902 12.4228 7.7148 12.3498 7.67461 12.2855C7.57648 11.9469 7.52119 11.5899 7.52119 11.2189C7.52119 10.8486 7.57681 10.4924 7.67461 10.1543C7.71508 10.0894 7.73932 10.0157 7.74528 9.93948C8.26366 8.48086 9.63958 7.43663 11.274 7.4131ZM17.7774 9.62333C17.8096 9.75418 17.8613 9.87731 17.8852 10.012C17.8878 10.0489 17.8947 10.0855 17.9057 10.1208C17.9205 10.2207 17.9354 10.3179 17.9457 10.41C17.9457 10.4112 17.9457 10.4125 17.9457 10.4137C17.9769 10.6775 17.9949 10.9493 17.9949 11.2189C17.9949 11.4885 17.977 11.7604 17.9457 12.0242C17.9457 12.0254 17.9457 12.0267 17.9457 12.0279C17.9354 12.1205 17.9206 12.2184 17.9057 12.3189C17.8949 12.3534 17.888 12.389 17.8852 12.4249C17.8612 12.56 17.8097 12.6834 17.7774 12.8146L15.98 12.2297C16.0509 11.9035 16.0906 11.566 16.0906 11.2189C16.0906 10.8719 16.0509 10.5344 15.98 10.2082L17.7774 9.62333ZM4.88416 9.62426L6.67968 10.2082C6.60872 10.5344 6.56903 10.8719 6.56903 11.2189C6.56903 11.566 6.60872 11.9035 6.67968 12.2297L4.88416 12.8136C4.85128 12.683 4.79831 12.5587 4.77443 12.4249C4.7718 12.3883 4.76493 12.3521 4.75398 12.3171C4.73919 12.2172 4.72422 12.1199 4.71399 12.0279C4.714 12.0267 4.714 12.0254 4.71399 12.0242C4.68269 11.7603 4.66471 11.4885 4.66471 11.2189C4.66471 10.9493 4.68269 10.6775 4.71399 10.4137C4.714 10.4125 4.714 10.4112 4.71399 10.41C4.72429 10.3174 4.73908 10.2195 4.75398 10.1189C4.76472 10.0848 4.77159 10.0496 4.77443 10.0139C4.79834 9.87979 4.85121 9.75517 4.88416 9.62426ZM1.88169 10.0343L3.76462 10.3663C3.73378 10.6445 3.71255 10.9298 3.71255 11.2189C3.71255 11.5081 3.73378 11.7934 3.76462 12.0716L1.88169 12.4036C1.88059 12.3937 1.87808 12.3837 1.87704 12.3738C1.87675 12.3713 1.87644 12.3688 1.87611 12.3664C1.83081 11.9904 1.80823 11.6099 1.80823 11.2189C1.80823 10.828 1.83081 10.4475 1.87611 10.0715C1.87644 10.069 1.87675 10.0666 1.87704 10.0641C1.87808 10.0542 1.88059 10.0442 1.88169 10.0343ZM20.778 10.0343C20.7791 10.0442 20.7816 10.0542 20.7826 10.0641C20.7829 10.0666 20.7832 10.069 20.7835 10.0715C20.8288 10.4475 20.8514 10.828 20.8514 11.2189C20.8514 11.6099 20.8288 11.9904 20.7835 12.3664C20.7832 12.3688 20.7829 12.3713 20.7826 12.3738C20.7816 12.3837 20.7791 12.3937 20.778 12.4036L18.895 12.0716C18.9259 11.7934 18.9471 11.5081 18.9471 11.2189C18.9471 10.9298 18.9259 10.6445 18.895 10.3663L20.778 10.0343ZM3.95431 13.0052C3.98493 13.1297 4.02045 13.2518 4.05752 13.3734C4.04237 13.4986 4.07748 13.6246 4.15516 13.7239C4.17841 13.7886 4.18695 13.86 4.21188 13.9239V13.9248C4.29775 14.157 4.41982 14.3741 4.52989 14.5961L2.87941 15.5483C2.52206 14.855 2.2515 14.1142 2.07603 13.3362L3.95431 13.0052ZM18.7072 13.0052L20.5836 13.3362C20.4082 14.1142 20.1376 14.8551 19.7802 15.5483L18.1316 14.5971C18.2423 14.3746 18.364 14.1561 18.4524 13.9248C18.4787 13.8576 18.4859 13.7835 18.5101 13.7156C18.5826 13.6192 18.6158 13.4989 18.6031 13.379C18.6402 13.2553 18.6768 13.1313 18.7072 13.0052ZM6.97444 13.1335C7.25126 13.76 7.66124 14.3137 8.16557 14.7644L7.04139 16.3117C7.02259 16.2969 7.0027 16.2835 6.98188 16.2717C6.96045 16.254 6.94215 16.2391 6.91121 16.2113C6.91059 16.2106 6.90998 16.21 6.90935 16.2094C6.50886 15.8534 6.14815 15.4482 5.84189 15.0043C5.84159 15.0037 5.84128 15.0031 5.84096 15.0025C5.7522 14.8751 5.67063 14.7405 5.58991 14.6017C5.57536 14.5664 5.55663 14.533 5.53412 14.5022C5.53412 14.5019 5.53412 14.5016 5.53412 14.5013C5.39102 14.2553 5.27273 13.9931 5.1659 13.723L6.97444 13.1335ZM15.6852 13.1335L17.4965 13.7239C17.3862 13.9953 17.2674 14.2589 17.1246 14.5041C17.1025 14.5346 17.0841 14.5677 17.0697 14.6026C16.9891 14.7412 16.9073 14.8753 16.8187 15.0025C16.8184 15.0031 16.8181 15.0037 16.8178 15.0043C16.5115 15.4482 16.1508 15.8534 15.7503 16.2094C15.7497 16.21 15.7491 16.2106 15.7484 16.2113C15.7191 16.2377 15.7023 16.2516 15.6815 16.2689C15.681 16.2693 15.6801 16.2694 15.6796 16.2698C15.6581 16.2822 15.6376 16.2962 15.6183 16.3117L14.4941 14.7644C14.9984 14.3137 15.4084 13.76 15.6852 13.1335ZM8.93455 15.3261C9.50953 15.6629 10.159 15.8861 10.8537 15.9556V17.8273C10.4744 17.8 10.0923 17.7799 9.73329 17.6925L9.73422 17.6934C9.51329 17.6392 9.30706 17.5764 9.10657 17.5028C9.073 17.485 9.03741 17.4713 9.00057 17.4619C8.73719 17.3634 8.47892 17.2531 8.2381 17.1225C8.23656 17.1216 8.235 17.1206 8.23345 17.1197C8.08779 17.0431 7.96692 16.9341 7.82804 16.8482L8.93455 15.3261ZM13.7251 15.3261L14.8316 16.8482C14.6927 16.9341 14.5719 17.0431 14.4262 17.1197C14.4247 17.1206 14.4231 17.1216 14.4216 17.1225C14.1799 17.2536 13.9206 17.3641 13.6563 17.4628C13.6201 17.472 13.5852 17.4854 13.5522 17.5028C13.3519 17.5763 13.1461 17.6393 12.9254 17.6934L12.9264 17.6925C12.5674 17.7799 12.1852 17.8 11.8059 17.8273V15.9556C12.5007 15.8861 13.1501 15.6629 13.7251 15.3261ZM4.98644 15.4302C5.01211 15.469 5.03307 15.5089 5.0599 15.5474C5.35834 15.9795 5.71927 16.3581 6.09574 16.7171L4.86742 18.1807C4.36003 17.7058 3.88599 17.2002 3.48939 16.6278C3.48939 16.6275 3.48939 16.6272 3.48939 16.6269C3.43527 16.5491 3.38782 16.4638 3.33597 16.3833L4.98644 15.4302ZM17.6732 15.4302L19.3237 16.3833C19.2718 16.4638 19.2244 16.5491 19.1703 16.6269C19.1703 16.6272 19.1703 16.6275 19.1703 16.6278C18.7737 17.2002 18.2996 17.7058 17.7922 18.1807L16.5639 16.7171C16.9404 16.3581 17.3013 15.9795 17.5998 15.5474L17.6016 15.5455C17.6279 15.5077 17.648 15.4682 17.6732 15.4302ZM6.80428 17.354C6.87645 17.4205 6.96738 17.463 7.06464 17.4758C7.30571 17.6392 7.53357 17.8267 7.78899 17.9612L7.78992 17.9622C7.95173 18.0497 8.12159 18.1116 8.28831 18.1844L7.63835 19.9725C7.39271 19.8691 7.14462 19.7751 6.90656 19.6489C6.90533 19.6483 6.90409 19.6476 6.90284 19.647C6.44185 19.4079 6.02216 19.095 5.60664 18.7804L6.80428 17.354ZM15.8554 17.355L17.053 18.7804C16.6375 19.095 16.2178 19.4079 15.7568 19.647C15.7556 19.6476 15.7543 19.6483 15.7531 19.6489C15.515 19.7751 15.2669 19.8691 15.0213 19.9725L14.3713 18.1844C14.5381 18.1116 14.7079 18.0497 14.8697 17.9622L14.8707 17.9612C15.1261 17.8267 15.3539 17.6392 15.595 17.4758C15.6922 17.4633 15.7831 17.4211 15.8554 17.355ZM9.18096 18.5182C9.28989 18.5499 9.39726 18.5907 9.50734 18.6177C9.50765 18.6177 9.50796 18.6177 9.50827 18.6177C9.93926 18.7226 10.3971 18.7506 10.8537 18.7795V20.6829C10.2401 20.6516 9.62729 20.6073 9.05543 20.4644C9.0545 20.464 9.05357 20.4637 9.05264 20.4634C8.87024 20.4191 8.70347 20.3578 8.53007 20.3044L9.18096 18.5182ZM13.4787 18.5182L14.1296 20.3044C13.9562 20.3578 13.7894 20.4191 13.607 20.4634C13.6061 20.4637 13.6052 20.464 13.6042 20.4644C13.0324 20.6073 12.4196 20.6516 11.8059 20.6829V18.7795C12.2626 18.7506 12.7204 18.7226 13.1514 18.6177C13.1517 18.6177 13.152 18.6177 13.1523 18.6177C13.2624 18.5907 13.3698 18.5499 13.4787 18.5182ZM7.74063 21.0557C7.74211 21.0563 7.74376 21.0561 7.74528 21.0567C7.74857 21.0578 7.75127 21.0601 7.75458 21.0613L7.74063 21.0557ZM14.919 21.0557L14.9051 21.0613C14.9084 21.0602 14.9111 21.0579 14.9144 21.0567C14.9158 21.0561 14.9175 21.0563 14.919 21.0557Z" fill="#FEFAFA"/>
</svg>
