<svg xmlns="http://www.w3.org/2000/svg" width="90" height="90" fill="none" viewBox="0 0 90 90"><path fill="#fff" d="M79.425 18.225H70.5v-2.55a3.836 3.836 0 0 0-3.825-3.825H57.75V8.025a1.275 1.275 0 0 0-1.275-1.275H8.025A1.275 1.275 0 0 0 6.75 8.025v71.4A1.275 1.275 0 0 0 8.025 80.7h38.48a3.838 3.838 0 0 0 3.595 2.55h7.65a3.836 3.836 0 0 0 3.825-3.825V57.75h1.275a1.275 1.275 0 0 0 1.275-1.275v-5.1A1.275 1.275 0 0 0 62.85 50.1h-5.1V45h21.675a3.836 3.836 0 0 0 3.825-3.825V22.05a3.836 3.836 0 0 0-3.825-3.825Zm-8.925 10.2v-2.55h5.1V37.35H57.75v-5.1h8.925a3.836 3.836 0 0 0 3.825-3.825ZM66.675 14.4a1.275 1.275 0 0 1 1.275 1.275v12.75a1.275 1.275 0 0 1-1.275 1.275h-45.9a1.275 1.275 0 0 1-1.275-1.275v-12.75a1.275 1.275 0 0 1 1.275-1.275h45.9Zm-28.05 19.125A3.836 3.836 0 0 0 34.8 37.35v8.925a1.275 1.275 0 1 1-2.55 0V42.45a3.825 3.825 0 1 0-7.65 0v14.025a1.275 1.275 0 1 1-2.55 0V32.25H45v10.2a1.275 1.275 0 1 1-2.55 0v-5.1a3.836 3.836 0 0 0-3.825-3.825Zm7.65 44.625H9.3V9.3h45.9v2.55H20.775a3.836 3.836 0 0 0-3.825 3.825v2.55h-1.275a2.558 2.558 0 0 0-2.55 2.55v2.55a2.558 2.558 0 0 0 2.55 2.55h1.275v2.55a3.838 3.838 0 0 0 2.55 3.595v24.455a3.825 3.825 0 1 0 7.65 0V42.45a1.275 1.275 0 1 1 2.55 0v3.825a3.825 3.825 0 1 0 7.65 0V37.35a1.275 1.275 0 1 1 2.55 0v5.1a3.825 3.825 0 1 0 7.65 0v-10.2h7.65v5.1h-1.275a3.836 3.836 0 0 0-3.825 3.825V50.1H45a1.275 1.275 0 0 0-1.275 1.275v5.1A1.275 1.275 0 0 0 45 57.75h1.275v20.4ZM16.95 20.775v2.55h-1.275v-2.55h1.275Zm42.075 58.65A1.275 1.275 0 0 1 57.75 80.7H50.1a1.275 1.275 0 0 1-1.275-1.275V57.75h10.2v21.675Zm2.55-26.775v2.55h-15.3v-2.55h15.3ZM80.7 41.175a1.275 1.275 0 0 1-1.275 1.275H57.75A2.558 2.558 0 0 0 55.2 45v5.1h-2.55v-8.925a1.275 1.275 0 0 1 1.275-1.275H75.6a2.558 2.558 0 0 0 2.55-2.55V25.875a2.558 2.558 0 0 0-2.55-2.55h-5.1v-2.55h8.925A1.275 1.275 0 0 1 80.7 22.05v19.125Z"/><path fill="#fff" d="M23.325 62.85a3.825 3.825 0 1 0 0 7.65 3.825 3.825 0 0 0 0-7.65Zm0 5.1a1.275 1.275 0 1 1 0-2.55 1.275 1.275 0 0 1 0 2.55ZM33.525 52.65a3.825 3.825 0 1 0 0 7.65 3.825 3.825 0 0 0 0-7.65Zm0 5.1a1.275 1.275 0 1 1 0-2.549 1.275 1.275 0 0 1 0 2.549ZM22.05 18.225a1.275 1.275 0 0 0 1.275 1.275H57.75a1.275 1.275 0 0 0 0-2.55H23.325a1.275 1.275 0 0 0-1.275 1.275ZM62.85 19.5h1.275a1.275 1.275 0 0 0 0-2.55H62.85a1.275 1.275 0 1 0 0 2.55Z"/></svg>