<svg xmlns="http://www.w3.org/2000/svg" width="90" height="90" fill="none" viewBox="0 0 90 90"><path fill="#fff" d="M82.111 20.028h-3.345l.004-5.98c.002-4.014-3.262-7.282-7.277-7.284L46.108 6.75h-.003a5.375 5.375 0 0 0-3.826 1.585L4.382 46.23A7.232 7.232 0 0 0 2.25 51.38c0 1.945.757 3.773 2.132 5.148l24.594 24.594a7.258 7.258 0 0 0 5.148 2.129c1.864 0 3.729-.71 5.148-2.129l23.86-23.86a1.67 1.67 0 1 0-2.363-2.363l-23.86 23.86a3.943 3.943 0 0 1-5.57 0L6.745 54.166a3.914 3.914 0 0 1-1.154-2.785c0-1.053.41-2.042 1.154-2.786l37.897-37.896c.39-.391.91-.607 1.463-.607h.001l25.385.015a3.944 3.944 0 0 1 3.937 3.941l-.008 14h-7.525a2.333 2.333 0 0 1-1.66-.692 6.13 6.13 0 0 0 1.925-1.302 6.166 6.166 0 0 0 0-8.709 6.165 6.165 0 0 0-8.71 0 6.166 6.166 0 0 0 0 8.71c.89.89 1.988 1.449 3.138 1.68a5.69 5.69 0 0 0 5.307 3.655h7.523l-.004 8.009c0 .553-.216 1.071-.606 1.462l-4.587 4.587a1.67 1.67 0 1 0 2.362 2.363l4.588-4.587a5.377 5.377 0 0 0 1.584-3.823l.005-8.011h3.351a5.687 5.687 0 0 0 5.68-5.68 5.687 5.687 0 0 0-5.68-5.681Zm-20.298-.321c.55-.55 1.27-.824 1.992-.824a2.81 2.81 0 0 1 1.992.824c.174.174.317.366.436.57a5.703 5.703 0 0 0-3.801 3.879 2.8 2.8 0 0 1-.62-.465 2.82 2.82 0 0 1 0-3.984Zm20.298 8.34h-3.35l.003-4.678h3.347c1.29 0 2.34 1.05 2.34 2.34 0 1.289-1.05 2.338-2.34 2.338Z"/><path fill="#fff" d="M29.218 48.903a1.67 1.67 0 0 0 2.057 1.162l17.151-4.774a1.671 1.671 0 0 0-.896-3.219L30.38 46.846a1.671 1.671 0 0 0-1.161 2.057ZM36.768 51.108a4.893 4.893 0 0 0-1.443 3.484c0 1.315.512 2.552 1.443 3.483.96.96 2.221 1.44 3.483 1.44 1.261 0 2.523-.48 3.483-1.44a4.932 4.932 0 0 0 0-6.967 4.932 4.932 0 0 0-6.966 0Zm4.603 4.604a1.586 1.586 0 0 1-2.705-1.12 1.582 1.582 0 0 1 1.584-1.584c.407 0 .813.154 1.121.463a1.586 1.586 0 0 1 0 2.24ZM44.562 41.16a4.932 4.932 0 0 0 0-6.966 4.894 4.894 0 0 0-3.484-1.443 4.892 4.892 0 0 0-3.483 1.443 4.932 4.932 0 0 0 0 6.966c.96.96 2.222 1.44 3.483 1.44 1.262 0 2.523-.48 3.484-1.44Zm-4.604-4.604c.3-.3.697-.464 1.12-.464a1.586 1.586 0 0 1 1.12 2.705 1.586 1.586 0 0 1-2.24 0 1.587 1.587 0 0 1 0-2.24Z"/><path fill="#fff" d="M18.867 45.45a1.67 1.67 0 0 0-2.363 0l-4.747 4.748a1.67 1.67 0 0 0 0 2.363l21.186 21.186a1.667 1.667 0 0 0 2.362 0L66.983 42.07a1.67 1.67 0 0 0 0-2.363L45.796 18.521a1.67 1.67 0 0 0-2.362 0L25.956 36a1.671 1.671 0 0 0 2.362 2.364l16.297-16.297 18.823 18.823-29.314 29.314-18.823-18.824 3.566-3.566a1.67 1.67 0 0 0 0-2.362ZM66.677 49.683c-.44 0-.87.179-1.181.49-.311.31-.49.742-.49 1.181 0 .44.179.87.49 1.181.31.31.741.49 1.181.49.44 0 .87-.18 1.181-.49.31-.31.49-.742.49-1.181 0-.44-.18-.87-.49-1.181a1.685 1.685 0 0 0-1.181-.49Z"/><path fill="#fff" d="M23.592 43.087c.312-.31.49-.74.49-1.181 0-.44-.178-.869-.49-1.181a1.68 1.68 0 0 0-1.181-.49c-.44 0-.87.179-1.181.49-.311.31-.49.742-.49 1.18 0 .442.179.871.49 1.182a1.672 1.672 0 0 0 2.362 0Z"/></svg>